<svg xmlns="http://www.w3.org/2000/svg" viewBox="0 0 512 512" role="img" aria-labelledby="title desc">
  <title id="title">Better-IGRS</title>
  <desc id="desc">A database stack representing a game ratings registry</desc>
  <defs>
    <filter id="shadow" x="-20%" y="-20%" width="140%" height="150%">
      <feDropShadow dx="0" dy="8" stdDeviation="8" flood-color="#0f172a" flood-opacity="0.28"/>
    </filter>
  </defs>
  <g filter="url(#shadow)">
    <ellipse cx="256" cy="177" rx="112" ry="48" fill="#eff6ff"/>
    <path d="M144 177v72c0 27 50 48 112 48s112-21 112-48v-72c0 27-50 48-112 48s-112-21-112-48Z" fill="#bfdbfe"/>
    <path d="M144 249v72c0 27 50 48 112 48s112-21 112-48v-72c0 27-50 48-112 48s-112-21-112-48Z" fill="#93c5fd"/>
    <path d="M144 177c0 27 50 48 112 48s112-21 112-48" fill="none" stroke="#1e3a8a" stroke-width="14"/>
    <path d="M144 249c0 27 50 48 112 48s112-21 112-48M144 321c0 27 50 48 112 48s112-21 112-48" fill="none" stroke="#1e3a8a" stroke-width="14"/>
    <circle cx="256" cy="177" r="16" fill="#06b6d4"/>
  </g>
</svg>
